<svg version="1.1" id="Layer_1" xmlns="http://www.w3.org/2000/svg" xmlns:xlink="http://www.w3.org/1999/xlink" x="0px" y="0px"
	 width="100%" viewBox="0 0 98 96" enable-background="new 0 0 98 96" xml:space="preserve">

<path fill="#FEFDFD" opacity="1.000000" stroke="none"
	d="
M14.910414,7.120361
	C15.093378,7.080969 15.276343,7.041576 16.006367,7.034393
	C17.035355,7.407338 17.517284,7.748072 18.080589,8.537277
	C18.161963,12.239807 18.161963,15.493867 18.161963,19.152533
	C24.800823,17.930269 27.352320,22.071241 30.191175,25.900032
	C31.411915,27.546453 32.840702,29.111914 34.450432,30.358425
	C35.045383,30.819132 37.017891,30.635736 37.360302,30.102636
	C39.504311,26.764603 42.501488,23.614738 41.215286,18.762688
	C42.542404,17.586376 43.728386,16.701075 45.331459,15.815693
	C46.771225,16.151058 47.848133,16.376541 48.803749,16.847923
	C50.209328,17.541264 51.528339,18.410099 52.918488,19.658583
	C52.937527,26.388643 52.922310,32.664295 52.508335,38.955276
	C51.393360,37.812229 50.506706,36.722340 50.006344,35.477219
	C49.447411,34.086353 49.239056,32.554607 48.431503,31.047102
	C45.944836,31.010027 43.904785,31.010027 41.727970,31.010027
	C41.727970,33.785442 41.727970,35.898495 41.287159,37.976700
	C37.356884,37.941853 33.867424,37.941853 30.377960,37.941853
	C30.241367,38.396687 30.104774,38.851517 29.968182,39.306351
	C31.350170,40.546722 32.732159,41.787094 34.043697,43.382931
	C33.998932,44.461227 34.024620,45.184059 34.013165,46.142658
	C33.976025,46.378422 33.920071,46.852474 33.617302,46.883293
	C32.913437,46.972767 32.512333,47.031418 31.696678,47.022095
	C28.278410,46.417912 25.274696,45.881702 22.022350,45.301113
	C22.022350,42.760284 22.022350,40.461472 22.455158,38.086372
	C29.160603,38.008930 24.590767,33.550735 26.200478,31.344814
	C23.085899,31.344814 20.580082,31.344814 17.502972,31.344814
	C18.057003,33.906956 18.517113,36.034752 18.696770,38.416588
	C14.940363,39.727142 14.998029,37.440704 14.981797,35.108379
	C14.934443,28.303665 14.838144,21.499290 14.748531,14.275106
	C14.794158,11.610408 14.852286,9.365384 14.910414,7.120361
z"/>
<path fill="#D78F31" opacity="1.000000" stroke="none"
	d="
M50.032825,47.883099
	C52.466541,50.200493 54.900253,52.517883 57.513401,55.295517
	C59.225704,57.818989 60.761940,59.879738 62.290600,61.946095
	C64.239830,64.580956 66.182930,67.220345 68.078766,70.314011
	C68.062111,72.894066 68.095375,75.017883 68.105743,77.520561
	C68.065071,78.910980 68.047302,79.922554 67.656143,80.957504
	C66.535683,80.965164 65.788612,80.949448 64.983063,80.540375
	C64.068695,79.094925 63.348347,77.880623 62.326668,77.026955
	C60.586281,75.572777 58.656506,74.345268 57.237671,73.008636
	C58.772282,71.985580 60.984901,70.521034 60.789482,70.044960
	C59.872780,67.811760 58.581490,65.562515 56.880516,63.862865
	C54.615219,61.599331 51.847073,59.839039 49.258018,57.450500
	C49.245373,55.383369 49.269638,53.728306 49.432739,51.949974
	C49.428646,51.535187 49.285713,51.243668 49.085503,50.589256
	C49.059769,49.494183 49.091316,48.762009 49.351326,47.999191
	C49.579792,47.968552 50.032825,47.883099 50.032825,47.883099
z"/>
<path fill="#AA4904" opacity="1.000000" stroke="none"
	d="
M17.999214,8.088807
	C17.517284,7.748072 17.035355,7.407338 16.274456,6.951076
	C18.092051,3.161780 19.808632,3.011647 22.155489,5.892502
	C23.026215,6.961349 24.745609,7.863906 26.111673,7.913462
	C32.093922,8.130475 38.088528,8.006922 44.007038,8.006922
	C46.565018,0.593540 52.269669,5.433425 56.958065,3.642020
	C56.958065,7.940156 56.958065,11.391150 56.522472,15.301555
	C55.094513,15.723391 54.102150,15.685817 53.076736,15.238871
	C52.932255,12.624060 52.820816,10.418623 52.712208,8.269194
	C48.141384,7.507941 45.883305,9.985547 43.462807,12.928800
	C38.623234,12.623487 34.201908,12.256661 29.774096,12.002962
	C27.251148,11.858405 24.717619,11.898520 22.136463,11.460088
	C22.350416,7.838107 20.351032,7.721573 17.999214,8.088807
z"/>
<path fill="#9C6B4E" opacity="1.000000" stroke="none"
	d="
M65.123917,85.126411
	C65.006752,86.273445 64.889587,87.420479 64.728241,89.000000
	C60.545895,89.000000 56.417027,88.944984 52.290489,89.019424
	C49.556725,89.068733 46.316059,87.947418 45.151821,92.082237
	C44.996239,92.634796 43.130913,92.942398 42.051247,92.958687
	C36.404633,93.043808 30.753660,92.902779 25.109306,93.044159
	C22.769567,93.102760 21.667984,92.394234 22.024506,89.455467
	C22.074089,88.926231 22.278193,88.718040 22.687445,88.771820
	C25.032501,88.826202 26.968304,88.826805 29.373955,88.891647
	C34.930485,88.748230 40.017166,88.540581 45.166698,87.945053
	C45.284786,86.774376 45.340027,85.991570 45.813087,85.150200
	C48.542717,84.988426 50.854530,84.885231 53.609947,84.828003
	C57.575714,84.792618 61.097878,84.711273 64.746185,84.753876
	C64.872322,84.877823 65.123924,85.126411 65.123917,85.126411
z"/>
<path fill="#9C6B4E" opacity="1.000000" stroke="none"
	d="
M21.972355,89.030640
	C20.722977,89.012459 19.575335,88.889877 18.000000,88.721611
	C18.000000,84.690674 18.095800,80.715279 17.967747,76.747093
	C17.875898,73.900780 19.297546,70.410225 14.879293,69.082977
	C14.279358,68.902756 14.058234,66.730972 14.038320,65.475357
	C13.945889,59.647568 13.986167,53.817669 14.320244,47.452030
	C14.907092,46.833141 15.152633,46.750755 15.765120,46.653591
	C16.817732,47.702900 17.503395,48.766987 18.126335,50.262344
	C18.107071,51.849689 18.150532,53.005768 18.155819,54.615219
	C18.111393,58.688541 18.036715,62.310482 18.142138,65.927177
	C18.172310,66.962341 18.619898,68.825142 19.052515,68.878525
	C23.253052,69.396790 21.991707,72.524529 22.069729,74.905914
	C22.220486,79.507294 22.217466,84.113708 22.278193,88.718040
	C22.278193,88.718040 22.074089,88.926231 21.972355,89.030640
z"/>
<path fill="#FBF2ED" opacity="1.000000" stroke="none"
	d="
M81.155388,59.004246
	C80.763153,56.291771 80.370918,53.579296 79.957291,50.023430
	C80.904610,46.667774 77.383308,41.732357 83.741394,42.128620
	C84.923187,43.402863 86.104988,44.677109 87.547501,46.554527
	C87.829277,53.352276 87.850319,59.546848 87.871361,65.741417
	C87.163956,66.136658 86.456551,66.531898 85.157547,66.739899
	C83.429100,64.036522 82.292244,61.520386 81.155388,59.004246
z"/>
<path fill="#9C6B4E" opacity="1.000000" stroke="none"
	d="
M9.939730,43.103550
	C8.963196,42.351551 7.158389,41.621277 7.138006,40.844200
	C6.929819,32.907352 6.960669,24.961985 7.102396,17.022173
	C7.114691,16.333410 8.393486,15.667254 9.567051,15.142466
	C10.111731,15.575768 10.257372,15.803451 10.565050,16.442013
	C10.591000,25.278513 10.538943,33.650379 10.346043,42.172958
	C10.086542,42.573357 9.998054,42.833321 9.939730,43.103550
z"/>
<path fill="#C4A38D" opacity="1.000000" stroke="none"
	d="
M53.109783,15.648244
	C54.102150,15.685817 55.094513,15.723391 56.457253,15.743103
	C56.884743,23.869829 56.846241,32.016857 57.054062,40.157597
	C57.121155,42.785595 55.979328,43.293320 53.393272,42.514000
	C52.955658,41.014656 52.931374,39.977303 52.907089,38.939945
	C52.922310,32.664295 52.937527,26.388643 52.960171,19.216232
	C53.014992,17.429064 53.062389,16.538654 53.109783,15.648244
z"/>
<path fill="#F1D6CF" opacity="1.000000" stroke="none"
	d="
M52.508335,38.955276
	C52.931374,39.977303 52.955658,41.014656 52.953178,42.440491
	C51.958607,44.263939 50.990807,45.698914 50.027916,47.508492
	C50.032825,47.883099 49.579792,47.968552 48.993225,47.984444
	C47.254837,48.671024 46.103008,49.341709 44.577766,50.017708
	C42.789097,48.959991 41.373848,47.896961 40.238571,46.574036
	C41.908844,46.051796 43.299145,45.789459 44.920750,45.483479
	C44.920750,42.952869 44.920750,40.691219 45.351730,38.321705
	C51.969799,38.075508 47.775105,33.429813 48.878124,31.084177
	C49.239056,32.554607 49.447411,34.086353 50.006344,35.477219
	C50.506706,36.722340 51.393360,37.812229 52.508335,38.955276
z"/>
<path fill="#AA4904" opacity="1.000000" stroke="none"
	d="
M68.128677,69.857788
	C66.182930,67.220345 64.239830,64.580956 62.290600,61.946095
	C60.761940,59.879738 59.225704,57.818989 57.811058,55.448059
	C61.951374,58.100506 67.141090,59.470695 69.715263,64.514832
	C70.179710,65.424919 73.438957,64.908737 75.785156,65.487778
	C76.076172,66.933151 75.989937,67.941795 75.502426,68.975525
	C72.776985,69.286331 70.452835,69.572060 68.128677,69.857788
z"/>
<path fill="#EEB774" opacity="1.000000" stroke="none"
	d="
M75.903702,68.950439
	C75.989937,67.941795 76.076172,66.933151 76.236221,65.549370
	C77.879204,63.351498 79.448372,61.528767 81.086472,59.355141
	C82.292244,61.520386 83.429100,64.036522 84.840546,66.772491
	C84.270546,67.990273 83.389168,68.959923 82.592606,69.994843
	C81.915863,70.874077 81.336929,71.828598 79.993103,72.894722
	C78.198601,73.013802 77.125732,72.987961 76.008163,72.563156
	C75.943550,71.092941 75.923622,70.021690 75.903702,68.950439
z"/>
<path fill="#9C6B4E" opacity="1.000000" stroke="none"
	d="
M88.280220,65.841415
	C87.850319,59.546848 87.829277,53.352276 87.838432,46.707726
	C89.111801,46.257744 90.354973,46.257744 91.992172,46.257744
	C91.992172,51.957706 92.177048,57.365219 91.842293,62.740372
	C91.772041,63.868465 89.790108,64.877510 88.280220,65.841415
z"/>
<path fill="#9C6B4E" opacity="1.000000" stroke="none"
	d="
M83.842377,41.704536
	C77.383308,41.732357 80.904610,46.667774 79.884872,49.616508
	C78.699608,49.965794 77.565369,49.878609 76.222870,49.775417
	C76.222870,45.973961 76.222870,42.271118 76.222870,37.939106
	C78.993759,39.337513 83.432480,34.879494 83.842377,41.704536
z"/>
<path fill="#B0866D" opacity="1.000000" stroke="none"
	d="
M10.487044,15.977380
	C10.257372,15.803451 10.111731,15.575768 9.994551,15.095778
	C10.036227,12.828395 10.133472,10.759567 10.229037,8.726470
	C11.626210,8.196680 12.896337,7.715065 14.538439,7.176906
	C14.852286,9.365384 14.794158,11.610408 14.441570,14.496595
	C12.927090,15.417632 11.707067,15.697506 10.487044,15.977380
z"/>
<path fill="#AA4904" opacity="1.000000" stroke="none"
	d="
M76.052856,72.962120
	C77.125732,72.987961 78.198601,73.013802 79.669701,73.089752
	C80.663757,79.247284 75.702888,76.115479 72.789490,77.245605
	C72.290741,77.273880 71.969543,76.969292 71.980469,76.573929
	C71.595886,72.897522 73.896843,73.021332 76.052856,72.962120
z"/>
<path fill="#B0866D" opacity="1.000000" stroke="none"
	d="
M10.004822,43.463898
	C9.998054,42.833321 10.086542,42.573357 10.760744,42.210014
	C14.808228,41.717537 14.708372,44.545456 15.398172,46.668373
	C15.152633,46.750755 14.907092,46.833141 14.280064,46.988926
	C12.622354,45.982964 11.346133,44.903606 10.004822,43.463898
z"/>
<path fill="#AA4904" opacity="1.000000" stroke="none"
	d="
M68.029526,80.934120
	C68.047302,79.922554 68.065071,78.910980 68.485367,77.472572
	C69.915108,77.020248 70.942322,76.994766 71.969543,76.969292
	C71.969543,76.969292 72.290741,77.273880 72.433289,77.447929
	C71.649902,78.751213 70.723969,79.880455 69.171028,81.008072
	C68.372520,80.982346 68.201027,80.958237 68.029526,80.934120
z"/>
<path fill="#9C6B4E" opacity="1.000000" stroke="none"
	d="
M67.656136,80.957504
	C68.201027,80.958237 68.372520,80.982346 68.800163,81.048065
	C69.102242,83.274666 69.249611,85.540627 65.518951,85.076462
	C65.123924,85.126411 64.872322,84.877823 64.780228,84.383911
	C64.805931,82.904579 64.923744,81.919151 65.041550,80.933731
	C65.788612,80.949448 66.535683,80.965164 67.656136,80.957504
z"/>
<path fill="#F5E5DB" opacity="1.000000" stroke="none"
	d="
M15.765120,46.653591
	C14.708372,44.545456 14.808228,41.717537 10.901590,42.059303
	C10.538943,33.650379 10.591000,25.278513 10.565050,16.442013
	C11.707067,15.697506 12.927090,15.417632 14.454073,14.916270
	C14.838144,21.499290 14.934443,28.303665 14.981797,35.108379
	C14.998029,37.440704 14.940363,39.727142 19.073940,38.343269
	C20.495157,38.064827 21.258755,38.113747 22.022350,38.162663
	C22.022350,40.461472 22.022350,42.760284 22.022350,45.301113
	C25.274696,45.881702 28.278410,46.417912 31.502144,47.355713
	C30.454618,48.507420 29.231394,49.792114 27.910734,49.901608
	C24.694235,50.168289 21.432549,49.889935 18.189058,49.831078
	C17.503395,48.766987 16.817732,47.702900 15.765120,46.653591
z"/>
<path fill="#EEB774" opacity="1.000000" stroke="none"
	d="
M18.080589,8.537277
	C20.351032,7.721573 22.350416,7.838107 22.069199,11.887459
	C23.042761,13.808920 24.223310,15.968427 24.987701,15.829996
	C29.188404,15.069246 31.715384,18.177895 33.302757,20.466928
	C36.210461,24.659912 37.056175,23.729359 38.453045,19.844955
	C38.637077,19.333195 40.167370,19.305557 41.074150,19.053699
	C42.501488,23.614738 39.504311,26.764603 37.360302,30.102636
	C37.017891,30.635736 35.045383,30.819132 34.450432,30.358425
	C32.840702,29.111914 31.411915,27.546453 30.191175,25.900032
	C27.352320,22.071241 24.800823,17.930269 18.161963,19.152533
	C18.161963,15.493867 18.161963,12.239807 18.080589,8.537277
z"/>
<path fill="#C4A38D" opacity="1.000000" stroke="none"
	d="
M18.126335,50.262344
	C21.432549,49.889935 24.694235,50.168289 27.910734,49.901608
	C29.231394,49.792114 30.454618,48.507420 31.916698,47.423691
	C32.512333,47.031418 32.913437,46.972767 33.969971,46.950043
	C35.100174,46.960354 35.574944,46.934738 36.325287,47.031311
	C37.720108,47.046974 38.839352,46.940453 39.958595,46.833931
	C41.373848,47.896961 42.789097,48.959991 44.634613,50.420002
	C45.667431,54.271099 43.194328,54.001255 40.581181,54.080471
	C32.805115,54.073563 25.499554,54.117702 18.193993,54.161842
	C18.150532,53.005768 18.107071,51.849689 18.126335,50.262344
z"/>
<path fill="#D78F31" opacity="1.000000" stroke="none"
	d="
M41.215286,18.762690
	C40.167370,19.305557 38.637077,19.333195 38.453045,19.844955
	C37.056175,23.729359 36.210461,24.659912 33.302757,20.466928
	C31.715384,18.177895 29.188404,15.069246 24.987701,15.829996
	C24.223310,15.968427 23.042761,13.808920 22.121592,12.282850
	C24.717619,11.898520 27.251148,11.858405 29.774096,12.002962
	C34.201908,12.256661 38.623234,12.623487 43.602280,13.212310
	C44.409641,14.259720 44.662003,15.037747 44.914364,15.815775
	C43.728386,16.701075 42.542404,17.586376 41.215286,18.762690
z"/>
<path fill="#EEB774" opacity="1.000000" stroke="none"
	d="
M45.331459,15.815693
	C44.662003,15.037747 44.409641,14.259720 44.017807,13.198182
	C45.883305,9.985547 48.141384,7.507941 52.712208,8.269194
	C52.820816,10.418623 52.932255,12.624060 53.076736,15.238871
	C53.062389,16.538654 53.014992,17.429064 52.925911,18.761824
	C51.528339,18.410099 50.209328,17.541264 48.803749,16.847923
	C47.848133,16.376541 46.771225,16.151058 45.331459,15.815693
z"/>
<path fill="#141414" opacity="1.000000" stroke="none"
	d="
M22.455158,38.086372
	C21.258755,38.113747 20.495157,38.064827 19.354393,38.089230
	C18.517113,36.034752 18.057003,33.906956 17.502972,31.344814
	C20.580082,31.344814 23.085899,31.344814 26.200478,31.344814
	C24.590767,33.550735 29.160603,38.008930 22.455158,38.086372
z"/>
<path fill="#F1D6CF" opacity="1.000000" stroke="none"
	d="
M34.114147,43.027470
	C32.732159,41.787094 31.350170,40.546722 29.968182,39.306351
	C30.104774,38.851517 30.241367,38.396687 30.377960,37.941853
	C33.867424,37.941853 37.356884,37.941853 41.395947,37.984192
	C41.945545,38.026535 41.925579,38.243919 41.988945,38.644264
	C42.650684,43.313950 39.826824,43.191826 36.602570,42.998962
	C35.535309,42.998707 34.824730,43.013088 34.114147,43.027470
z"/>
<path fill="#141414" opacity="1.000000" stroke="none"
	d="
M48.431503,31.047102
	C47.775105,33.429813 51.969799,38.075508 44.986717,38.228325
	C43.435677,38.243176 42.680630,38.243549 41.925579,38.243919
	C41.925579,38.243919 41.945545,38.026535 41.836758,38.019043
	C41.727970,35.898495 41.727970,33.785442 41.727970,31.010027
	C43.904785,31.010027 45.944836,31.010027 48.431503,31.047102
z"/>
<path fill="#AA4904" opacity="1.000000" stroke="none"
	d="
M34.043697,43.382931
	C34.824730,43.013088 35.535309,42.998707 36.613716,43.353951
	C36.665504,44.524590 36.349468,45.325600 35.708637,46.049553
	C34.939327,45.950630 34.494816,45.928764 34.050304,45.906895
	C34.024620,45.184059 33.998932,44.461227 34.043697,43.382931
z"/>
<path fill="#F1D6CF" opacity="1.000000" stroke="none"
	d="
M34.013165,46.142658
	C34.494816,45.928764 34.939327,45.950630 35.699390,46.245461
	C36.014942,46.518421 36.049709,46.909122 36.049709,46.909122
	C35.574944,46.934738 35.100174,46.960354 34.272739,46.919220
	C33.920071,46.852474 33.976025,46.378422 34.013165,46.142658
z"/>
<path fill="#FFFFFE" opacity="1.000000" stroke="none"
	d="
M41.051685,54.131519
	C43.194328,54.001255 45.667431,54.271099 45.008030,50.414692
	C46.103008,49.341709 47.254837,48.671024 48.764763,48.015083
	C49.091316,48.762009 49.059769,49.494183 49.064468,50.877464
	C49.165115,51.710129 49.229511,51.891689 49.293900,52.073246
	C49.269638,53.728306 49.245373,55.383369 49.143463,57.898479
	C49.106155,61.204880 49.146492,63.651230 49.138615,66.525574
	C49.054970,68.969765 49.019535,70.985970 48.997902,72.995056
	C49.011703,72.987946 48.993637,72.962685 48.580219,73.002136
	C47.171650,73.969795 45.426270,74.821045 45.321678,75.840614
	C45.004925,78.928322 45.323956,82.081253 45.395267,85.208771
	C45.340027,85.991570 45.284786,86.774376 44.708145,87.889015
	C42.248878,88.129089 40.311020,88.037315 37.813015,87.919022
	C37.813015,82.391266 37.892994,77.280334 37.741043,72.176308
	C37.712902,71.231033 36.749123,70.313622 36.217178,69.383347
	C35.433472,69.981148 34.708229,70.686722 33.852154,71.151115
	C32.614403,71.822548 31.281872,72.319252 29.850613,72.657066
	C28.053640,69.996979 26.907375,66.381126 24.627575,65.400459
	C20.370565,63.569294 22.438105,61.065060 22.307446,57.993305
	C27.428596,57.993305 32.209919,57.842518 36.975845,58.048283
	C39.969025,58.177505 41.373734,57.190735 41.051685,54.131519
z"/>
<path fill="#F5E5DB" opacity="1.000000" stroke="none"
	d="
M64.983063,80.540375
	C64.923744,81.919151 64.805931,82.904579 64.654083,84.259964
	C61.097878,84.711273 57.575714,84.792618 53.568390,84.436600
	C52.986050,83.347008 53.038090,82.196754 52.769604,82.116310
	C47.694080,80.595627 49.213207,76.427032 48.993637,72.962685
	C48.993637,72.962685 49.011703,72.987946 49.395840,73.021553
	C50.837875,73.015892 51.895771,72.976616 53.339539,72.961090
	C54.752369,72.997406 55.779335,73.009972 56.806297,73.022530
	C58.656506,74.345268 60.586281,75.572777 62.326668,77.026955
	C63.348347,77.880623 64.068695,79.094925 64.983063,80.540375
z"/>
<path fill="#EEB774" opacity="1.000000" stroke="none"
	d="
M57.237671,73.008636
	C55.779335,73.009972 54.752369,72.997406 53.371170,72.532013
	C53.024376,70.776566 53.003151,69.473015 53.044880,68.171486
	C53.150867,64.865807 51.713379,64.480759 49.186829,66.097580
	C49.146492,63.651230 49.106155,61.204880 49.180374,58.310551
	C51.847073,59.839039 54.615219,61.599331 56.880516,63.862865
	C58.581490,65.562515 59.872780,67.811760 60.789482,70.044960
	C60.984901,70.521034 58.772282,71.985580 57.237671,73.008636
z"/>
<path fill="#CD701E" opacity="1.000000" stroke="none"
	d="
M71.980469,76.573929
	C70.942322,76.994766 69.915108,77.020248 68.508263,77.093719
	C68.095375,75.017883 68.062111,72.894066 68.078766,70.314011
	C70.452835,69.572060 72.776985,69.286331 75.502426,68.975525
	C75.923622,70.021690 75.943550,71.092941 76.008163,72.563156
	C73.896843,73.021332 71.595886,72.897522 71.980469,76.573929
z"/>
<path fill="#EEB774" opacity="1.000000" stroke="none"
	d="
M49.432739,51.949974
	C49.229511,51.891689 49.165115,51.710129 49.121750,51.240356
	C49.285713,51.243668 49.428646,51.535187 49.432739,51.949974
z"/>
<path fill="#F5E5DB" opacity="1.000000" stroke="none"
	d="
M40.581181,54.080471
	C41.373734,57.190735 39.969025,58.177505 36.975845,58.048283
	C32.209919,57.842518 27.428596,57.993305 22.307446,57.993305
	C22.438105,61.065060 20.370565,63.569294 24.627575,65.400459
	C26.907375,66.381126 28.053640,69.996979 29.845037,73.133034
	C29.620455,78.837433 29.262283,83.832420 28.904110,88.827408
	C26.968304,88.826805 25.032501,88.826202 22.687445,88.771820
	C22.217466,84.113708 22.220486,79.507294 22.069729,74.905914
	C21.991707,72.524529 23.253052,69.396790 19.052515,68.878525
	C18.619898,68.825142 18.172310,66.962341 18.142138,65.927177
	C18.036715,62.310482 18.111393,58.688541 18.155819,54.615219
	C25.499554,54.117702 32.805115,54.073563 40.581181,54.080471
z"/>
<path fill="#CAAA95" opacity="1.000000" stroke="none"
	d="
M29.373955,88.891647
	C29.262283,83.832420 29.620455,78.837433 29.984203,73.366470
	C31.281872,72.319252 32.614403,71.822548 33.852154,71.151115
	C34.708229,70.686722 35.433472,69.981148 36.217178,69.383347
	C36.749123,70.313622 37.712902,71.231033 37.741043,72.176308
	C37.892994,77.280334 37.813015,82.391266 37.813015,87.919022
	C40.311020,88.037315 42.248878,88.129089 44.645294,88.276894
	C40.017166,88.540581 34.930485,88.748230 29.373955,88.891647
z"/>
<path fill="#CAAA95" opacity="1.000000" stroke="none"
	d="
M48.580219,73.002136
	C49.213207,76.427032 47.694080,80.595627 52.769604,82.116310
	C53.038090,82.196754 52.986050,83.347008 53.124786,84.390633
	C50.854530,84.885231 48.542717,84.988426 45.813087,85.150200
	C45.323956,82.081253 45.004925,78.928322 45.321678,75.840614
	C45.426270,74.821045 47.171650,73.969795 48.580219,73.002136
z"/>
<path fill="#FFFFFE" opacity="1.000000" stroke="none"
	d="
M36.325287,47.031311
	C36.049709,46.909122 36.014942,46.518421 36.024189,46.322517
	C36.349468,45.325600 36.665504,44.524590 36.970390,43.368591
	C39.826824,43.191826 42.650684,43.313950 41.988945,38.644264
	C42.680630,38.243549 43.435677,38.243176 44.555740,38.336182
	C44.920750,40.691219 44.920750,42.952869 44.920750,45.483479
	C43.299145,45.789459 41.908844,46.051796 40.238571,46.574036
	C38.839352,46.940453 37.720108,47.046974 36.325287,47.031311
z"/>
<path fill="#CD701E" opacity="1.000000" stroke="none"
	d="
M49.138615,66.525574
	C51.713379,64.480759 53.150867,64.865807 53.044880,68.171486
	C53.003151,69.473015 53.024376,70.776566 52.985302,72.508270
	C51.895771,72.976616 50.837875,73.015892 49.382042,73.028664
	C49.019535,70.985970 49.054970,68.969765 49.138615,66.525574
z"/>
</svg>
